<?xml version="1.0" encoding="UTF-8"?>
<svg version="1.1" xmlns="http://www.w3.org/2000/svg" width="48" height="48">
<path d="M0 0 C1.21236328 0.01353516 1.21236328 0.01353516 2.44921875 0.02734375 C3.37154297 0.04474609 3.37154297 0.04474609 4.3125 0.0625 C4.6425 0.7225 4.9725 1.3825 5.3125 2.0625 C7.29138961 2.78943904 9.29204558 3.46066251 11.3125 4.0625 C11.3125 8.0225 11.3125 11.9825 11.3125 16.0625 C11.9725 16.0625 12.6325 16.0625 13.3125 16.0625 C13.3125 19.0325 13.3125 22.0025 13.3125 25.0625 C12.3225 25.3925 11.3325 25.7225 10.3125 26.0625 C9.3225 28.5375 9.3225 28.5375 8.3125 31.0625 C11.9425 32.7125 15.5725 34.3625 19.3125 36.0625 C19.3125 39.0325 19.3125 42.0025 19.3125 45.0625 C6.1125 45.0625 -7.0875 45.0625 -20.6875 45.0625 C-20.6875 42.0925 -20.6875 39.1225 -20.6875 36.0625 C-15.2425 33.5875 -15.2425 33.5875 -9.6875 31.0625 C-10.3475 29.4125 -11.0075 27.7625 -11.6875 26.0625 C-12.6775 25.7325 -13.6675 25.4025 -14.6875 25.0625 C-14.73678608 22.05604898 -14.73500174 19.06806441 -14.6875 16.0625 C-14.68169922 14.62390625 -14.68169922 14.62390625 -14.67578125 13.15625 C-14.56586148 10.33623928 -14.38387492 7.79889632 -13.6875 5.0625 C-9.48669381 1.2269813 -5.60082286 -0.08117135 0 0 Z " fill="#0C0C0C" transform="translate(24.6875,-0.0625)"/>
<path d="M0 0 C0.33 0.66 0.66 1.32 1 2 C2.97888961 2.72693904 4.97954558 3.39816251 7 4 C7 7.96 7 11.92 7 16 C7.66 16 8.32 16 9 16 C8.67 17.32 8.34 18.64 8 20 C7.34 20 6.68 20 6 20 C5.6596875 21.1446875 5.6596875 21.1446875 5.3125 22.3125 C3.67691864 25.66154755 2.43314409 26.59553196 -1 28 C-5.16667489 28 -6.67299379 27.2772444 -9.875 24.5625 C-12 22 -12 22 -12 20 C-12.99 19.67 -13.98 19.34 -15 19 C-15 18.01 -15 17.02 -15 16 C-14.34 16 -13.68 16 -13 16 C-13.33 12.37 -13.66 8.74 -14 5 C-5.71428571 -0.71428571 -5.71428571 -0.71428571 0 0 Z " fill="#F9F9F9" transform="translate(27,2)"/>
<path d="M0 0 C2.64 0 5.28 0 8 0 C8.33 0.66 8.66 1.32 9 2 C10.97888961 2.72693904 12.97954558 3.39816251 15 4 C15 7.96 15 11.92 15 16 C15.66 16 16.32 16 17 16 C17 18.97 17 21.94 17 25 C16.01 25.33 15.02 25.66 14 26 C13.01 28.475 13.01 28.475 12 31 C15.63 32.65 19.26 34.3 23 36 C23 38.97 23 41.94 23 45 C9.8 45 -3.4 45 -17 45 C-17 42.03 -17 39.06 -17 36 C-16.01 36 -15.02 36 -14 36 C-14.495 38.475 -14.495 38.475 -15 41 C-3.12 41 8.76 41 21 41 C21 40.01 21 39.02 21 38 C19.9790625 37.814375 19.9790625 37.814375 18.9375 37.625 C16 37 16 37 12.375 35.9375 C9.10203922 34.86617807 9.10203922 34.86617807 6 35 C6 34.34 6 33.68 6 33 C6.66 33 7.32 33 8 33 C7.01 31.68 6.02 30.36 5 29 C5.78375 28.5875 6.5675 28.175 7.375 27.75 C10.11507772 25.92328152 10.73335347 24.92303045 12 22 C12.66 21.67 13.32 21.34 14 21 C14.33 20.01 14.66 19.02 15 18 C14.34 18 13.68 18 13 18 C12.67 14.04 12.34 10.08 12 6 C10.02 5.34 8.04 4.68 6 4 C6 3.34 6 2.68 6 2 C3.69 2.33 1.38 2.66 -1 3 C-0.67 2.01 -0.34 1.02 0 0 Z " fill="#030303" transform="translate(21,0)"/>
<path d="M0 0 C3.28319613 0.11938895 6.20294088 0.20968385 9.390625 -0.62890625 C12.63592671 -1.09043868 14.33483539 -0.37267243 17.3125 0.9375 C18.19550781 1.31777344 19.07851563 1.69804688 19.98828125 2.08984375 C20.65214844 2.39019531 21.31601562 2.69054688 22 3 C22 3.99 22 4.98 22 6 C10.12 6 -1.76 6 -14 6 C-14 5.01 -14 4.02 -14 3 C-12.42274653 2.29866401 -10.83788667 1.614417 -9.25 0.9375 C-7.92742188 0.36322266 -7.92742188 0.36322266 -6.578125 -0.22265625 C-3.77155349 -1.06888008 -2.71459181 -0.90486394 0 0 Z " fill="#F8F8F8" transform="translate(20,35)"/>
<path d="M0 0 C1.093125 0.185625 2.18625 0.37125 3.3125 0.5625 C6.93624133 1.2578068 6.93624133 1.2578068 10 0 C10 0.99 10 1.98 10 3 C7.26094655 4.36952673 5.02912668 4.12621361 2 4 C1.34 3.67 0.68 3.34 0 3 C0 2.01 0 1.02 0 0 Z " fill="#E2E2E2" transform="translate(19,30)"/>
</svg>
