<?xml version="1.0" encoding="UTF-8"?>
<svg version="1.1" xmlns="http://www.w3.org/2000/svg" width="94" height="94">
<path d="M0 0 C0.2475 0.9075 0.495 1.815 0.75 2.75 C1.73147875 6.04084065 1.73147875 6.04084065 4.04931641 7.82983398 C6.59676825 10.66391401 6.49043323 12.20674492 6.4609375 15.97265625 C6.45707031 17.11927734 6.45320313 18.26589844 6.44921875 19.44726562 C6.41248047 21.23680664 6.41248047 21.23680664 6.375 23.0625 C6.37371094 24.25939453 6.37242188 25.45628906 6.37109375 26.68945312 C6.28105357 35.57841964 6.28105357 35.57841964 4 39 C3.46375 39.495 2.9275 39.99 2.375 40.5 C0.66213769 42.02943497 0.66213769 42.02943497 1 45 C2.96450472 46.96450472 4.01689184 47.85955598 6.75 48.25 C10.24562422 49.41520807 12.38925001 51.44726667 15 54 C15.8125 56.25 15.8125 56.25 16 59 C16.11085937 59.71800781 16.22171875 60.43601563 16.3359375 61.17578125 C17.40615663 68.44138 17.40615663 68.44138 15 72 C12.10111559 72.9662948 10.24031692 73.13176875 7.22485352 73.14526367 C6.25697403 73.15164352 5.28909454 73.15802338 4.29188538 73.16459656 C2.72621071 73.16626579 2.72621071 73.16626579 1.12890625 73.16796875 C-0.48190575 73.17296135 -0.48190575 73.17296135 -2.1252594 73.17805481 C-4.39738537 73.18311954 -6.66951878 73.18546328 -8.94165039 73.18530273 C-12.42020906 73.18748913 -15.89845059 73.2056496 -19.37695312 73.22460938 C-21.58333225 73.22754338 -23.78971288 73.22952813 -25.99609375 73.23046875 C-27.03785263 73.23765427 -28.07961151 73.24483978 -29.15293884 73.25224304 C-30.12397049 73.24916641 -31.09500214 73.24608978 -32.09545898 73.24291992 C-32.94800766 73.24434494 -33.80055634 73.24576996 -34.67893982 73.24723816 C-37.26006475 72.97229803 -38.84830793 72.44930908 -41 71 C-42.71700007 65.27666643 -41.64908902 61.13598892 -39 56 C-37 53.1875 -37 53.1875 -35 51 C-34.566875 50.443125 -34.13375 49.88625 -33.6875 49.3125 C-31.08155951 47.28565739 -28.16504751 46.77633241 -25 46 C-25.26676204 44.01508358 -25.26676204 44.01508358 -26 42 C-26.99 41.67 -27.98 41.34 -29 41 C-29.33 38.03 -29.66 35.06 -30 32 C-30.66 32 -31.32 32 -32 32 C-32.33 29.69 -32.66 27.38 -33 25 C-32.34 25 -31.68 25 -31 25 C-30.96261719 24.27554688 -30.92523438 23.55109375 -30.88671875 22.8046875 C-30.44482381 16.30623244 -29.77948878 11.35854895 -25.5 6.1875 C-24 5 -24 5 -21 4 C-20.401875 3.505 -19.80375 3.01 -19.1875 2.5 C-13.75129892 -1.22768074 -6.32918812 -0.10135711 0 0 Z M-16 2 C-16 2.33 -16 2.66 -16 3 C-14.35 3 -12.7 3 -11 3 C-11 2.67 -11 2.34 -11 2 C-12.65 2 -14.3 2 -16 2 Z M4 32 C5 35 5 35 5 35 Z M-36 71 C-36 71.33 -36 71.66 -36 72 C-29.73 72 -23.46 72 -17 72 C-17 71.67 -17 71.34 -17 71 C-23.27 71 -29.54 71 -36 71 Z M-9 71 C-9 71.33 -9 71.66 -9 72 C-2.4 72 4.2 72 11 72 C11 71.67 11 71.34 11 71 C4.4 71 -2.2 71 -9 71 Z " fill="#D06333" transform="translate(43,17)"/>
<path d="M0 0 C0.79289932 -0.00570007 1.58579865 -0.01140015 2.40272522 -0.01727295 C4.08316711 -0.02673598 5.76362767 -0.03326209 7.4440918 -0.03710938 C10.02099802 -0.04682164 12.5971091 -0.0778344 15.17382812 -0.109375 C16.80338066 -0.11590407 18.43293892 -0.12115492 20.0625 -0.125 C21.22349464 -0.1435202 21.22349464 -0.1435202 22.40794373 -0.16241455 C24.58178711 -0.15332031 24.58178711 -0.15332031 28.09765625 0.203125 C28.75765625 1.193125 29.41765625 2.183125 30.09765625 3.203125 C30.42765625 3.203125 30.75765625 3.203125 31.09765625 3.203125 C31.09765625 12.113125 31.09765625 21.023125 31.09765625 30.203125 C30.10765625 30.533125 29.11765625 30.863125 28.09765625 31.203125 C28.09765625 31.863125 28.09765625 32.523125 28.09765625 33.203125 C21.49765625 33.203125 14.89765625 33.203125 8.09765625 33.203125 C6.09765625 36.96742274 6.09765625 36.96742274 5.09765625 40.203125 C4.10765625 40.698125 4.10765625 40.698125 3.09765625 41.203125 C1.96415091 43.21982327 1.96415091 43.21982327 1.09765625 45.203125 C-1.90234375 44.203125 -1.90234375 44.203125 -3.90234375 42.203125 C-4.23234375 42.203125 -4.56234375 42.203125 -4.90234375 42.203125 C-4.90234375 39.233125 -4.90234375 36.263125 -4.90234375 33.203125 C-6.22234375 32.873125 -7.54234375 32.543125 -8.90234375 32.203125 C-8.92699879 27.80656327 -8.94518217 23.4100378 -8.95727539 19.01342773 C-8.96231496 17.51667582 -8.96914662 16.01992884 -8.9777832 14.52319336 C-8.98986534 12.37612693 -8.99557566 10.22912538 -9 8.08203125 C-9.00523682 6.7885376 -9.01047363 5.49504395 -9.01586914 4.16235352 C-8.79607256 -1.56701066 -4.67047092 0.02557784 0 0 Z M-6.90234375 1.203125 C-6.90234375 1.533125 -6.90234375 1.863125 -6.90234375 2.203125 C4.31765625 2.203125 15.53765625 2.203125 27.09765625 2.203125 C27.09765625 1.873125 27.09765625 1.543125 27.09765625 1.203125 C15.87765625 1.203125 4.65765625 1.203125 -6.90234375 1.203125 Z " fill="#1CB04C" transform="translate(61.90234375,3.796875)"/>
<path d="M0 0 C0.99 0 1.98 0 3 0 C3.268125 1.11375 3.53625 2.2275 3.8125 3.375 C4.65809019 7.21840951 4.65809019 7.21840951 8 9 C12.44435518 9.32921149 16.09965194 9.29432239 20 7 C20.65213292 4.97536745 20.65213292 4.97536745 21 3 C21.99 2.67 22.98 2.34 24 2 C24.33 1.34 24.66 0.68 25 0 C25.680625 0.7115625 25.680625 0.7115625 26.375 1.4375 C28.14431068 3.13876027 29.31472935 3.90210419 31.75 4.25 C35.24562422 5.41520807 37.38925001 7.44726667 40 10 C40.8125 12.25 40.8125 12.25 41 15 C41.11085937 15.71800781 41.22171875 16.43601562 41.3359375 17.17578125 C42.40615663 24.44138 42.40615663 24.44138 40 28 C37.10111559 28.9662948 35.24031692 29.13176875 32.22485352 29.14526367 C31.25697403 29.15164352 30.28909454 29.15802338 29.29188538 29.16459656 C27.72621071 29.16626579 27.72621071 29.16626579 26.12890625 29.16796875 C24.51809425 29.17296135 24.51809425 29.17296135 22.8747406 29.17805481 C20.60261463 29.18311954 18.33048122 29.18546328 16.05834961 29.18530273 C12.57979094 29.18748913 9.10154941 29.2056496 5.62304688 29.22460938 C3.41666775 29.22754338 1.21028712 29.22952813 -0.99609375 29.23046875 C-2.03785263 29.23765427 -3.07961151 29.24483978 -4.15293884 29.25224304 C-5.12397049 29.24916641 -6.09500214 29.24608978 -7.09545898 29.24291992 C-7.94800766 29.24434494 -8.80055634 29.24576996 -9.67893982 29.24723816 C-12.26006475 28.97229803 -13.84830793 28.44930908 -16 27 C-17.71700007 21.27666643 -16.64908902 17.13598892 -14 12 C-12 9.1875 -12 9.1875 -10 7 C-9.566875 6.443125 -9.13375 5.88625 -8.6875 5.3125 C-6.08155951 3.28565739 -3.16504751 2.77633241 0 2 C0 1.34 0 0.68 0 0 Z M-11 27 C-11 27.33 -11 27.66 -11 28 C-4.73 28 1.54 28 8 28 C8 27.67 8 27.34 8 27 C1.73 27 -4.54 27 -11 27 Z M16 27 C16 27.33 16 27.66 16 28 C22.6 28 29.2 28 36 28 C36 27.67 36 27.34 36 27 C29.4 27 22.8 27 16 27 Z " fill="#3AB5FA" transform="translate(18,61)"/>
<path d="M0 0 C2.00946677 0.01462881 4.01887642 0.05605767 6.02734375 0.12109375 C7.04634766 0.12689453 8.06535156 0.13269531 9.11523438 0.13867188 C16.67008507 0.26383507 16.67008507 0.26383507 18.96484375 2.55859375 C19.02680139 5.54731245 18.96220569 8.39692248 18.77734375 11.37109375 C18.74576172 12.17869141 18.71417969 12.98628906 18.68164062 13.81835938 C18.41834968 18.47746441 17.95498733 21.77736849 14.96484375 25.55859375 C10.9030244 28.33251916 8.3540287 29.77787198 3.46484375 29.24609375 C2.67078125 29.16746094 1.87671875 29.08882812 1.05859375 29.0078125 C-1.03515625 28.55859375 -1.03515625 28.55859375 -3.03515625 26.55859375 C-5.02336938 26.16095112 -7.02459964 25.82084026 -9.03515625 25.55859375 C-9.69515625 23.24859375 -10.35515625 20.93859375 -11.03515625 18.55859375 C-11.69515625 18.55859375 -12.35515625 18.55859375 -13.03515625 18.55859375 C-13.36515625 16.24859375 -13.69515625 13.93859375 -14.03515625 11.55859375 C-12.71515625 11.22859375 -11.39515625 10.89859375 -10.03515625 10.55859375 C-10.03515625 11.87859375 -10.03515625 13.19859375 -10.03515625 14.55859375 C-9.37515625 14.55859375 -8.71515625 14.55859375 -8.03515625 14.55859375 C-8.06996094 13.96691406 -8.10476562 13.37523437 -8.140625 12.765625 C-8.16769531 11.97542969 -8.19476562 11.18523438 -8.22265625 10.37109375 C-8.25746094 9.59378906 -8.29226562 8.81648438 -8.328125 8.015625 C-7.62699278 2.13546282 -5.84656992 0.2810204 0 0 Z " fill="#FEC082" transform="translate(24.03515625,30.44140625)"/>
<path d="M0 0 C2.32536063 3.48804095 2.33457898 4.90140754 2 9 C1.1875 11.3125 1.1875 11.3125 0 13 C-2.89888441 13.9662948 -4.75968308 14.13176875 -7.77514648 14.14526367 C-9.22696571 14.15483345 -9.22696571 14.15483345 -10.70811462 14.16459656 C-12.27378929 14.16626579 -12.27378929 14.16626579 -13.87109375 14.16796875 C-15.48190575 14.17296135 -15.48190575 14.17296135 -17.1252594 14.17805481 C-19.39738537 14.18311954 -21.66951878 14.18546328 -23.94165039 14.18530273 C-27.42020906 14.18748913 -30.89845059 14.2056496 -34.37695312 14.22460938 C-36.58333225 14.22754338 -38.78971288 14.22952813 -40.99609375 14.23046875 C-42.03785263 14.23765427 -43.07961151 14.24483978 -44.15293884 14.25224304 C-45.12397049 14.24916641 -46.09500214 14.24608978 -47.09545898 14.24291992 C-47.94800766 14.24434494 -48.80055634 14.24576996 -49.67893982 14.24723816 C-52.27326976 13.97089144 -53.85683903 13.49176631 -56 12 C-56.75 8.375 -56.75 8.375 -57 5 C-53.75525669 3.37762835 -50.43903048 4.76391249 -47 5.4375 C-37.58566523 7.14298167 -28.53647782 7.36749433 -19 7 C-17.19015625 6.95359375 -17.19015625 6.95359375 -15.34375 6.90625 C-9.6053285 6.86947488 -9.6053285 6.86947488 -4.8671875 4.078125 C-3.94292969 3.04945312 -3.94292969 3.04945312 -3 2 C-2.01 1.34 -1.02 0.68 0 0 Z M-51 12 C-51 12.33 -51 12.66 -51 13 C-44.73 13 -38.46 13 -32 13 C-32 12.67 -32 12.34 -32 12 C-38.27 12 -44.54 12 -51 12 Z M-24 12 C-24 12.33 -24 12.66 -24 13 C-17.4 13 -10.8 13 -4 13 C-4 12.67 -4 12.34 -4 12 C-10.6 12 -17.2 12 -24 12 Z " fill="#1E70E3" transform="translate(58,76)"/>
<path d="M0 0 C2.67927341 4.01891012 2.15601248 6.24161923 2 11 C2.66 11 3.32 11 4 11 C4 9.68 4 8.36 4 7 C4.66 7 5.32 7 6 7 C6.05406122 8.93719378 6.09282025 10.87481921 6.125 12.8125 C6.14820313 13.89144531 6.17140625 14.97039063 6.1953125 16.08203125 C5.96177651 19.57105899 4.87473192 21.15891162 2.375 23.5625 C0.76959245 24.90934248 0.76959245 24.90934248 1 27 C0.34 27 -0.32 27 -1 27 C-1.33 27.99 -1.66 28.98 -2 30 C-3.0553291 33.0700483 -3.90925937 33.94091308 -6.6875 35.75 C-10.44716157 37.16874021 -13.01279182 37.44302313 -17 37 C-19.375 35.875 -19.375 35.875 -21 34 C-21.2165625 32.515 -21.2165625 32.515 -21.4375 31 C-21.68507372 27.80596728 -21.68507372 27.80596728 -24.4375 26.1875 C-25.283125 25.795625 -26.12875 25.40375 -27 25 C-27.66 24.67 -28.32 24.34 -29 24 C-28 22 -28 22 -26 21 C-23.535847 21.84299971 -21.31502991 22.8170794 -19.0625 24.125 C-15.60666484 25.59111188 -12.65233907 25.63816853 -9.12890625 24.27734375 C-6.32784917 22.83896309 -4.32923641 21.61883232 -2.83203125 18.8046875 C-1.83150352 15.43201655 -1.61141175 12.32403732 -1.4375 8.8125 C-1.09801634 2.19603267 -1.09801634 2.19603267 0 0 Z M4 15 C5 18 5 18 5 18 Z " fill="#E9965E" transform="translate(43,34)"/>
<path d="M0 0 C3.40597789 1.45970481 5.70525803 3.06971638 8 6 C8.20703125 9.3125 8.20703125 9.3125 7.8125 13 C7.69519531 14.216875 7.57789062 15.43375 7.45703125 16.6875 C7.10908468 19.20936916 6.70146683 21.56011536 6 24 C5.34 24 4.68 24 4 24 C3.87882812 23.22914062 3.75765625 22.45828125 3.6328125 21.6640625 C3.46523438 20.66117188 3.29765625 19.65828125 3.125 18.625 C2.88136719 17.12839844 2.88136719 17.12839844 2.6328125 15.6015625 C2.2041198 12.8574885 2.2041198 12.8574885 0 11 C-2.37318478 10.90716148 -4.75120063 10.92449147 -7.125 11 C-12.76618916 11.11852087 -17.62025057 10.75665288 -23 9 C-22.67 8.34 -22.34 7.68 -22 7 C-19.5234375 6.62109375 -19.5234375 6.62109375 -16.375 6.4375 C-11.86505801 6.13611963 -7.46189109 5.70984631 -3 5 C-2.67 4.01 -2.34 3.02 -2 2 C-1.34 2 -0.68 2 0 2 C0 1.34 0 0.68 0 0 Z " fill="#823B1B" transform="translate(41,21)"/>
<path d="M0 0 C0.33 0 0.66 0 1 0 C1 8.91 1 17.82 1 27 C0.01 27.33 -0.98 27.66 -2 28 C-2 28.66 -2 29.32 -2 30 C-8.27 30 -14.54 30 -21 30 C-21 28.68 -21 27.36 -21 26 C-12.585 25.505 -12.585 25.505 -4 25 C-3.67 17.74 -3.34 10.48 -3 3 C-8.78888633 3.07895506 -8.78888633 3.07895506 -14.57739258 3.18017578 C-15.30079834 3.1851709 -16.0242041 3.19016602 -16.76953125 3.1953125 C-17.87711792 3.21102295 -17.87711792 3.21102295 -19.00708008 3.22705078 C-21 3 -21 3 -24 1 C-20.37501666 0.97106068 -16.75006287 0.95322208 -13.125 0.9375 C-11.57619141 0.92493164 -11.57619141 0.92493164 -9.99609375 0.91210938 C-9.00996094 0.90888672 -8.02382812 0.90566406 -7.0078125 0.90234375 C-5.64100342 0.89448853 -5.64100342 0.89448853 -4.24658203 0.88647461 C-2 1 -2 1 0 2 C0 1.34 0 0.68 0 0 Z " fill="#2A8024" transform="translate(92,7)"/>
<path d="M0 0 C0.33 0 0.66 0 1 0 C2.03032178 17.85891089 2.03032178 17.85891089 -1.25 23 C-5.38856506 27.39847495 -11.25601206 27.62822085 -17 28 C-16.34 28.99 -15.68 29.98 -15 31 C-15 31.99 -15 32.98 -15 34 C-13.02 34 -11.04 34 -9 34 C-9 34.33 -9 34.66 -9 35 C-15.24 35.36 -15.24 35.36 -18.375 33.875 C-20 32 -20 32 -20.4375 29 C-20.68507372 25.80596728 -20.68507372 25.80596728 -23.4375 24.1875 C-24.283125 23.795625 -25.12875 23.40375 -26 23 C-26.66 22.67 -27.32 22.34 -28 22 C-27 20 -27 20 -25 19 C-22.535847 19.84299971 -20.31502991 20.8170794 -18.0625 22.125 C-14.60666484 23.59111188 -11.65233907 23.63816853 -8.12890625 22.27734375 C-5.33249491 20.84134874 -3.33110688 19.62221428 -1.8359375 16.8125 C-0.82278904 13.40377619 -0.57397609 10.2359069 -0.375 6.6875 C-0.30023438 5.43324219 -0.22546875 4.17898437 -0.1484375 2.88671875 C-0.09945312 1.93410156 -0.05046875 0.98148438 0 0 Z " fill="#F2975B" transform="translate(42,36)"/>
<path d="M0 0 C0.66 0.33 1.32 0.66 2 1 C1.67 1.99 1.34 2.98 1 4 C-1.89888441 4.9662948 -3.75968308 5.13176875 -6.77514648 5.14526367 C-8.22696571 5.15483345 -8.22696571 5.15483345 -9.70811462 5.16459656 C-11.27378929 5.16626579 -11.27378929 5.16626579 -12.87109375 5.16796875 C-14.48190575 5.17296135 -14.48190575 5.17296135 -16.1252594 5.17805481 C-18.39738537 5.18311954 -20.66951878 5.18546328 -22.94165039 5.18530273 C-26.42020906 5.18748913 -29.89845059 5.2056496 -33.37695312 5.22460938 C-35.58333225 5.22754338 -37.78971288 5.22952813 -39.99609375 5.23046875 C-41.03785263 5.23765427 -42.07961151 5.24483978 -43.15293884 5.25224304 C-44.12397049 5.24916641 -45.09500214 5.24608978 -46.09545898 5.24291992 C-46.94800766 5.24434494 -47.80055634 5.24576996 -48.67893982 5.24723816 C-51.19397059 4.97933835 -52.82760706 4.26333234 -55 3 C-54.67 2.34 -54.34 1.68 -54 1 C-53.36772995 1.00222061 -52.7354599 1.00444122 -52.08403015 1.00672913 C-45.51444055 1.02882064 -38.94486147 1.04392283 -32.37524414 1.05493164 C-29.92211478 1.0599662 -27.46898843 1.06679424 -25.01586914 1.07543945 C-21.4936448 1.08754332 -17.97146006 1.09323703 -14.44921875 1.09765625 C-13.34913986 1.10281754 -12.24906097 1.10797882 -11.11564636 1.11329651 C-10.09481461 1.11337204 -9.07398285 1.11344757 -8.0222168 1.11352539 C-7.12286911 1.115746 -6.22352142 1.11796661 -5.29692078 1.12025452 C-2.83734702 1.09366856 -2.83734702 1.09366856 0 0 Z M-50 3 C-50 3.33 -50 3.66 -50 4 C-43.73 4 -37.46 4 -31 4 C-31 3.67 -31 3.34 -31 3 C-37.27 3 -43.54 3 -50 3 Z M-23 3 C-23 3.33 -23 3.66 -23 4 C-16.4 4 -9.8 4 -3 4 C-3 3.67 -3 3.34 -3 3 C-9.6 3 -16.2 3 -23 3 Z " fill="#2B42AE" transform="translate(57,85)"/>
<path d="M0 0 C0 1.65 0 3.3 0 5 C-7.25791205 8.48883163 -13.25093201 9.55991413 -21.2578125 9.390625 C-22.28687714 9.38496521 -23.31594177 9.37930542 -24.37619019 9.37347412 C-27.62628974 9.35128703 -30.87524011 9.30112415 -34.125 9.25 C-36.34373395 9.22991216 -38.56248538 9.21166542 -40.78125 9.1953125 C-46.18788455 9.15148064 -51.59386014 9.08474869 -57 9 C-57.33 7.68 -57.66 6.36 -58 5 C-54.75525669 3.37762835 -51.43903048 4.76391249 -48 5.4375 C-38.58566523 7.14298167 -29.53647782 7.36749433 -20 7 C-18.19015625 6.95359375 -18.19015625 6.95359375 -16.34375 6.90625 C-10.6053285 6.86947488 -10.6053285 6.86947488 -5.8671875 4.078125 C-4.94292969 3.04945312 -4.94292969 3.04945312 -4 2 C-1 0 -1 0 0 0 Z " fill="#3191EE" transform="translate(59,76)"/>
<path d="M0 0 C1.31872662 0.39651917 2.62997101 0.81798691 3.9375 1.25 C4.66839844 1.48203125 5.39929688 1.7140625 6.15234375 1.953125 C8 3 8 3 8.75390625 5.109375 C8.83511719 5.73328125 8.91632812 6.3571875 9 7 C5.95026315 9.0331579 5.31043132 9.2548508 1.875 9.265625 C1.08609375 9.26820312 0.2971875 9.27078125 -0.515625 9.2734375 C-1.33546875 9.26570313 -2.1553125 9.25796875 -3 9.25 C-3.81984375 9.25773437 -4.6396875 9.26546875 -5.484375 9.2734375 C-6.27328125 9.27085938 -7.0621875 9.26828125 -7.875 9.265625 C-8.59429688 9.26336914 -9.31359375 9.26111328 -10.0546875 9.25878906 C-12 9 -12 9 -15 7 C-15 6.34 -15 5.68 -15 5 C-14.40832031 5.02320312 -13.81664063 5.04640625 -13.20703125 5.0703125 C-6.85287881 5.2579904 -6.85287881 5.2579904 -1 3 C-0.67 2.01 -0.34 1.02 0 0 Z " fill="#2296E9" transform="translate(39,65)"/>
<path d="M0 0 C0.99 0 1.98 0 3 0 C3.33 1.65 3.66 3.3 4 5 C3.071875 5.226875 2.14375 5.45375 1.1875 5.6875 C-2.54469713 7.22428705 -3.1724155 8.52758945 -5 12 C-5.66 12 -6.32 12 -7 12 C-7.33 13.65 -7.66 15.3 -8 17 C-10.31 16.67 -12.62 16.34 -15 16 C-13.74744043 12.53137349 -12.36229707 9.83475649 -10 7 C-9.5875 6.46375 -9.175 5.9275 -8.75 5.375 C-6.11632996 3.30568783 -3.21247068 2.78796451 0 2 C0 1.34 0 0.68 0 0 Z " fill="#C2E7FD" transform="translate(18,61)"/>
<path d="M0 0 C0.66 0 1.32 0 2 0 C2.29296875 6.0546875 2.29296875 6.0546875 2 8 C-1.20380017 10.13586678 -2.01939967 10.23132175 -5.6875 10.125 C-6.49574219 10.10695313 -7.30398437 10.08890625 -8.13671875 10.0703125 C-9.05904297 10.03550781 -9.05904297 10.03550781 -10 10 C-10.99 7.69 -11.98 5.38 -13 3 C-10.00519083 2.1276588 -7.36424089 1.89170234 -4.25 1.9375 C-3.45078125 1.94652344 -2.6515625 1.95554688 -1.828125 1.96484375 C-1.22484375 1.97644531 -0.6215625 1.98804688 0 2 C0 1.34 0 0.68 0 0 Z " fill="#D97341" transform="translate(37,60)"/>
<path d="M0 0 C0.33 0 0.66 0 1 0 C1.19665429 3.93709911 1.38075477 7.87468672 1.5625 11.8125 C1.61857422 12.93205078 1.67464844 14.05160156 1.73242188 15.20507812 C1.78076172 16.27822266 1.82910156 17.35136719 1.87890625 18.45703125 C1.9260376 19.44678955 1.97316895 20.43654785 2.02172852 21.45629883 C2 24 2 24 1 27 C-5.27 27 -11.54 27 -18 27 C-18 25.68 -18 24.36 -18 23 C-9.585 22.505 -9.585 22.505 -1 22 C-0.67 14.74 -0.34 7.48 0 0 Z " fill="#16742C" transform="translate(89,10)"/>
<path d="M0 0 C0.66 0.33 1.32 0.66 2 1 C1.484375 1.763125 0.96875 2.52625 0.4375 3.3125 C-0.036875 4.199375 -0.51125 5.08625 -1 6 C-0.67 6.99 -0.34 7.98 0 9 C-8.30800057 11.33207033 -14.69199943 11.33207033 -23 9 C-22.67 8.34 -22.34 7.68 -22 7 C-19.5234375 6.62109375 -19.5234375 6.62109375 -16.375 6.4375 C-11.86505801 6.13611963 -7.46189109 5.70984631 -3 5 C-2.67 4.01 -2.34 3.02 -2 2 C-1.34 2 -0.68 2 0 2 C0 1.34 0 0.68 0 0 Z " fill="#7F2511" transform="translate(41,21)"/>
<path d="M0 0 C-0.99 0.66 -1.98 1.32 -3 2 C-3 2.66 -3 3.32 -3 4 C-3.90621094 4.07476563 -4.81242187 4.14953125 -5.74609375 4.2265625 C-14.07483808 5.12553808 -19.5059311 6.724465 -26 12 C-26.99 12.66 -27.98 13.32 -29 14 C-28.3125 10.625 -28.3125 10.625 -27 7 C-24.5625 5.75 -24.5625 5.75 -22 5 C-21.566875 4.505 -21.13375 4.01 -20.6875 3.5 C-15.35907891 -1.2363743 -6.63265485 -0.21946284 0 0 Z M-16 2 C-16 2.33 -16 2.66 -16 3 C-14.35 3 -12.7 3 -11 3 C-11 2.67 -11 2.34 -11 2 C-12.65 2 -14.3 2 -16 2 Z " fill="#E1BAAE" transform="translate(43,17)"/>
<path d="M0 0 C0 1.65 0 3.3 0 5 C-1.32 5 -2.64 5 -4 5 C-4.66 6.65 -5.32 8.3 -6 10 C-5.01 10.33 -4.02 10.66 -3 11 C-4.08203125 13.015625 -4.08203125 13.015625 -6 15 C-9.13671875 15.171875 -9.13671875 15.171875 -12.6875 14.75 C-14.45673828 14.55664062 -14.45673828 14.55664062 -16.26171875 14.359375 C-17.16535156 14.24078125 -18.06898437 14.1221875 -19 14 C-19 13.01 -19 12.02 -19 11 C-16.36 11.33 -13.72 11.66 -11 12 C-10.67 10.35 -10.34 8.7 -10 7 C-9.34 7 -8.68 7 -8 7 C-7.62875 5.824375 -7.62875 5.824375 -7.25 4.625 C-6 2 -6 2 -4 0.6875 C-2 0 -2 0 0 0 Z " fill="#75D4FD" transform="translate(21,66)"/>
<path d="M0 0 C1.74216797 0.05414062 1.74216797 0.05414062 3.51953125 0.109375 C4.39996094 0.15578125 5.28039062 0.2021875 6.1875 0.25 C6.1875 0.58 6.1875 0.91 6.1875 1.25 C0.2475 1.745 0.2475 1.745 -5.8125 2.25 C-4.1625 2.58 -2.5125 2.91 -0.8125 3.25 C-0.8125 3.58 -0.8125 3.91 -0.8125 4.25 C-1.988125 4.37375 -1.988125 4.37375 -3.1875 4.5 C-5.89984633 4.96251366 -5.89984633 4.96251366 -6.9375 7 C-7.87000264 9.39786393 -8.2118184 11.44227521 -8.4375 14 C-8.51226563 14.79921875 -8.58703125 15.5984375 -8.6640625 16.421875 C-8.71304687 17.02515625 -8.76203125 17.6284375 -8.8125 18.25 C-9.4725 18.25 -10.1325 18.25 -10.8125 18.25 C-11.66593848 15.22798835 -12.06312666 12.388035 -12.1875 9.25 C-12.23648437 8.404375 -12.28546875 7.55875 -12.3359375 6.6875 C-11.8125 4.25 -11.8125 4.25 -9.71484375 1.953125 C-6.18522736 -0.11809 -4.05908203 -0.16400331 0 0 Z " fill="#B63E17" transform="translate(24.8125,26.75)"/>
<path d="M0 0 C0.61875 0.474375 1.2375 0.94875 1.875 1.4375 C3.89273869 2.92113139 5.26938522 3.89562646 7.75 4.25 C11.2979822 5.43266073 13.40602583 7.34707187 16 10 C16.375 13.3125 16.375 13.3125 16 16 C15.34 16 14.68 16 14 16 C13.3503125 14.700625 13.3503125 14.700625 12.6875 13.375 C9.40846394 8.01626403 2.55378307 6.26324686 -3 4 C-2.01 3.34 -1.02 2.68 0 2 C0 1.34 0 0.68 0 0 Z " fill="#9ED5F9" transform="translate(42,61)"/>
<path d="M0 0 C0.66 0 1.32 0 2 0 C-1 9 -1 9 -3 10 C-4.13350534 12.01669827 -4.13350534 12.01669827 -5 14 C-5.99 13.67 -6.98 13.34 -8 13 C-9.60725635 9.78548731 -9.05748185 6.56387464 -9 3 C-8.67 3 -8.34 3 -8 3 C-8 5.31 -8 7.62 -8 10 C-5.37448607 7.51640574 -3.17851684 5.29752806 -1.3125 2.1875 C-0.879375 1.465625 -0.44625 0.74375 0 0 Z " fill="#238945" transform="translate(68,35)"/>
<path d="M0 0 C2.64 0.99 5.28 1.98 8 3 C7.67 4.32 7.34 5.64 7 7 C6.01 6.67 5.02 6.34 4 6 C3.34 6 2.68 6 2 6 C-0.66666667 6 -3.33333333 6 -6 6 C-3 4 -3 4 -1 3 C-0.67 2.01 -0.34 1.02 0 0 Z " fill="#2E99E5" transform="translate(39,65)"/>
<path d="M0 0 C0 3 0 3 -1 5 C-1.66 5 -2.32 5 -3 5 C-3.33 6.65 -3.66 8.3 -4 10 C-5.65 9.67 -7.3 9.34 -9 9 C-8.31267043 6.25068173 -7.64439778 4.46581179 -5.30859375 2.77734375 C-3.56883675 1.79675344 -1.7862389 0.89311945 0 0 Z " fill="#92E2FE" transform="translate(14,68)"/>
<path d="M0 0 C2.31 0.33 4.62 0.66 7 1 C6.01 1.66 5.02 2.32 4 3 C4.99 4.485 4.99 4.485 6 6 C6 6.99 6 7.98 6 9 C7.98 9 9.96 9 12 9 C12 9.33 12 9.66 12 10 C5.7995992 10.35771543 5.7995992 10.35771543 2.625 8.9375 C0.28994873 6.15340041 0.26785608 3.54909302 0 0 Z " fill="#D28462" transform="translate(21,61)"/>
<path d="M0 0 C-1 4 -1 4 -2 8 C-2.66 8 -3.32 8 -4 8 C-4.33 8.99 -4.66 9.98 -5 11 C-5.66 11 -6.32 11 -7 11 C-7.8125 8.875 -7.8125 8.875 -8 6 C-6.01654547 2.48574653 -4.26162808 0 0 0 Z " fill="#E68F59" transform="translate(46,53)"/>
<path d="M0 0 C0.33 0 0.66 0 1 0 C1.08103404 2.91722548 1.14051081 5.83219516 1.1875 8.75 C1.21263672 9.575 1.23777344 10.4 1.26367188 11.25 C1.33763151 17.36399646 1.33763151 17.36399646 -0.34375 20.53125 C-2.4710951 22.41776358 -4.2101544 22.69839507 -7 23 C-6.38125 22.443125 -5.7625 21.88625 -5.125 21.3125 C-1.08053336 16.91116865 -0.70233757 12.52502006 -0.375 6.6875 C-0.26285156 4.80611328 -0.26285156 4.80611328 -0.1484375 2.88671875 C-0.09945312 1.93410156 -0.05046875 0.98148438 0 0 Z " fill="#F7A56A" transform="translate(42,36)"/>
<path d="M0 0 C4.29 0 8.58 0 13 0 C12.34 1.32 11.68 2.64 11 4 C8.03 4 5.06 4 2 4 C1.34 2.68 0.68 1.36 0 0 Z " fill="#C55020" transform="translate(24,63)"/>
<path d="M0 0 C0.66 0.33 1.32 0.66 2 1 C1.06848413 3.30502651 0.48971233 4.70365539 -1.671875 6.01171875 C-8.68116745 8.29105633 -15.66507102 8.69742114 -23 9 C-22.67 8.34 -22.34 7.68 -22 7 C-19.5234375 6.62109375 -19.5234375 6.62109375 -16.375 6.4375 C-11.86505801 6.13611963 -7.46189109 5.70984631 -3 5 C-2.67 4.01 -2.34 3.02 -2 2 C-1.34 2 -0.68 2 0 2 C0 1.34 0 0.68 0 0 Z " fill="#AA270F" transform="translate(41,21)"/>
<path d="M0 0 C0.66 0 1.32 0 2 0 C2.05406122 1.93719378 2.09282025 3.87481921 2.125 5.8125 C2.14820313 6.89144531 2.17140625 7.97039063 2.1953125 9.08203125 C2 12 2 12 0 15 C-1.19287411 11.12315913 -2 8.08378077 -2 4 C-1.34 4 -0.68 4 0 4 C0 2.68 0 1.36 0 0 Z M0 8 C1 11 1 11 1 11 Z " fill="#D8874D" transform="translate(47,41)"/>
<path d="M0 0 C2.88437779 1.29299694 4.87219421 2.65941363 7 5 C6.67 5.66 6.34 6.32 6 7 C-0.15234375 6.4140625 -0.15234375 6.4140625 -2 6 C-2.33 5.34 -2.66 4.68 -3 4 C-2.34 4 -1.68 4 -1 4 C-0.67 2.68 -0.34 1.36 0 0 Z " fill="#C28174" transform="translate(42,22)"/>
<path d="M0 0 C0.99 0 1.98 0 3 0 C3 0.66 3 1.32 3 2 C2.34 2 1.68 2 1 2 C1 2.66 1 3.32 1 4 C-0.1875 5.625 -0.1875 5.625 -2 7 C-4.6875 7.1875 -4.6875 7.1875 -7 7 C-6.67 5.68 -6.34 4.36 -6 3 C-4.02 2.67 -2.04 2.34 0 2 C0 1.34 0 0.68 0 0 Z " fill="#BE5534" transform="translate(40,19)"/>
<path d="M0 0 C0.99 0 1.98 0 3 0 C3.33 1.65 3.66 3.3 4 5 C-0.455 6.485 -0.455 6.485 -5 8 C-5 6.35 -5 4.7 -5 3 C-3.35 2.67 -1.7 2.34 0 2 C0 1.34 0 0.68 0 0 Z " fill="#BCE4F5" transform="translate(18,61)"/>
<path d="M0 0 C0.33 1.32 0.66 2.64 1 4 C1.66 4 2.32 4 3 4 C2.67 6.31 2.34 8.62 2 11 C-3 6 -3 6 -3.125 3.375 C-3.08375 2.59125 -3.0425 1.8075 -3 1 C-2.01 0.67 -1.02 0.34 0 0 Z " fill="#F89C5F" transform="translate(13,41)"/>
<path d="M0 0 C1.44207941 2.88415883 1.09394887 5.41721528 1.0625 8.625 C1.05347656 9.81351563 1.04445313 11.00203125 1.03515625 12.2265625 C1.02355469 13.14179687 1.01195312 14.05703125 1 15 C0.34 15 -0.32 15 -1 15 C-1.93619813 11.84493858 -2.1057123 9.03413498 -2.0625 5.75 C-2.05347656 4.85796875 -2.04445313 3.9659375 -2.03515625 3.046875 C-2.02355469 2.37140625 -2.01195312 1.6959375 -2 1 C-1.34 0.67 -0.68 0.34 0 0 Z " fill="#C16535" transform="translate(15,30)"/>
<path d="M0 0 C2.31 0.33 4.62 0.66 7 1 C7 1.66 7 2.32 7 3 C6.34 3 5.68 3 5 3 C4.67 4.32 4.34 5.64 4 7 C3.67 6.34 3.34 5.68 3 5 C1.11235097 4.31527335 1.11235097 4.31527335 -1.0625 3.875 C-1.79597656 3.70742188 -2.52945313 3.53984375 -3.28515625 3.3671875 C-3.85105469 3.24601562 -4.41695312 3.12484375 -5 3 C-5 2.67 -5 2.34 -5 2 C-3.35 2 -1.7 2 0 2 C0 1.34 0 0.68 0 0 Z " fill="#954527" transform="translate(41,28)"/>
<path d="M0 0 C3.5625 0.1875 3.5625 0.1875 5.5625 2.1875 C3.95375 2.2803125 3.95375 2.2803125 2.3125 2.375 C-1.57281961 2.84895959 -1.57281961 2.84895959 -3.875 5.75 C-4.390625 6.554375 -4.90625 7.35875 -5.4375 8.1875 C-4.42618176 0.2414281 -4.42618176 0.2414281 0 0 Z " fill="#FAD298" transform="translate(22.4375,30.8125)"/>
<path d="M0 0 C0.99 0.33 1.98 0.66 3 1 C1.91796875 3.015625 1.91796875 3.015625 0 5 C-3.13671875 5.171875 -3.13671875 5.171875 -6.6875 4.75 C-8.45673828 4.55664062 -8.45673828 4.55664062 -10.26171875 4.359375 C-11.16535156 4.24078125 -12.06898437 4.1221875 -13 4 C-13 3.67 -13 3.34 -13 3 C-12.14535156 2.86722656 -11.29070313 2.73445313 -10.41015625 2.59765625 C-9.30542969 2.42105469 -8.20070313 2.24445313 -7.0625 2.0625 C-5.96035156 1.88847656 -4.85820312 1.71445313 -3.72265625 1.53515625 C-1.09573071 1.28154864 -1.09573071 1.28154864 0 0 Z " fill="#55C6FE" transform="translate(15,76)"/>
<path d="M0 0 C0 1.65 0 3.3 0 5 C-1.32 5 -2.64 5 -4 5 C-5.7511573 6.4166747 -5.7511573 6.4166747 -7 8 C-6.75 5.125 -6.75 5.125 -6 2 C-3.84139132 0.46808416 -2.63707871 0 0 0 Z " fill="#67D2FA" transform="translate(21,66)"/>
<path d="M0 0 C0.33 0 0.66 0 1 0 C1 8.91 1 17.82 1 27 C0.67 27 0.34 27 0 27 C0 18.09 0 9.18 0 0 Z " fill="#0BBF2C" transform="translate(51,7)"/>
<path d="M0 0 C0.33 0 0.66 0 1 0 C1 1.98 1 3.96 1 6 C-2.63 6 -6.26 6 -10 6 C-6.71536341 3.81024227 -3.79303725 3.00193437 0 2 C0 1.34 0 0.68 0 0 Z " fill="#2B6EDA" transform="translate(59,79)"/>
<path d="M0 0 C0.66 0.33 1.32 0.66 2 1 C2 1.99 2 2.98 2 4 C0.46875 5.38671875 0.46875 5.38671875 -1.5 6.6875 C-2.47453125 7.34298828 -2.47453125 7.34298828 -3.46875 8.01171875 C-3.9740625 8.33785156 -4.479375 8.66398437 -5 9 C-3.375 2.25 -3.375 2.25 0 0 Z " fill="#EEC4BE" transform="translate(19,22)"/>
<path d="M0 0 C0 0.66 0 1.32 0 2 C-3.14930893 3.04976964 -5.38814456 3.10131595 -8.6875 3.0625 C-9.68136719 3.05347656 -10.67523438 3.04445313 -11.69921875 3.03515625 C-12.83810547 3.01775391 -12.83810547 3.01775391 -14 3 C-14 2.67 -14 2.34 -14 2 C-12.4176994 1.66179834 -10.83410625 1.32964061 -9.25 1 C-8.36828125 0.814375 -7.4865625 0.62875 -6.578125 0.4375 C-4 0 -4 0 0 0 Z " fill="#1F5CD2" transform="translate(57,84)"/>
<path d="M0 0 C4.71428571 2.35714286 4.71428571 2.35714286 6 6 C6 7.32 6 8.64 6 10 C5.34 10 4.68 10 4 10 C2.68 6.7 1.36 3.4 0 0 Z " fill="#8CB4EE" transform="translate(52,67)"/>
<path d="M0 0 C0.99 0.99 1.98 1.98 3 3 C2.67 3.99 2.34 4.98 2 6 C-0.64 6 -3.28 6 -6 6 C-3 4 -3 4 -1 3 C-0.67 2.01 -0.34 1.02 0 0 Z " fill="#2F75C6" transform="translate(39,65)"/>
<path d="M0 0 C2.5 1.3125 2.5 1.3125 5 3 C5 3.99 5 4.98 5 6 C3.02 5.34 1.04 4.68 -1 4 C-1 1 -1 1 0 0 Z " fill="#CE8C57" transform="translate(16,55)"/>
<path d="M0 0 C0.515625 0.2475 1.03125 0.495 1.5625 0.75 C-4.8375 4.81153846 -4.8375 4.81153846 -7.875 4.5 C-8.390625 4.2525 -8.90625 4.005 -9.4375 3.75 C-3.0375 -0.31153846 -3.0375 -0.31153846 0 0 Z " fill="#DF8D64" transform="translate(28.4375,22.25)"/>
<path d="M0 0 C2.475 0.99 2.475 0.99 5 2 C4.01 2.495 4.01 2.495 3 3 C2.67 3.99 2.34 4.98 2 6 C1.34 6 0.68 6 0 6 C-0.38218767 4.34385343 -0.71395102 2.67542976 -1 1 C-0.67 0.67 -0.34 0.34 0 0 Z " fill="#C47C64" transform="translate(39,58)"/>
<path d="M0 0 C0.66 0.33 1.32 0.66 2 1 C1.835 1.928125 1.67 2.85625 1.5 3.8125 C0.92251612 6.95621353 0.92251612 6.95621353 1 10 C0.34 10 -0.32 10 -1 10 C-1.125 2.25 -1.125 2.25 0 0 Z " fill="#13D678" transform="translate(61,35)"/>
<path d="M0 0 C0.66 0.33 1.32 0.66 2 1 C0.25 4.875 0.25 4.875 -2 6 C-3.99960012 6.039992 -6.00047242 6.04346799 -8 6 C-8 5.67 -8 5.34 -8 5 C-6.35 5 -4.7 5 -3 5 C-2.67 4.01 -2.34 3.02 -2 2 C-1.34 2 -0.68 2 0 2 C0 1.34 0 0.68 0 0 Z " fill="#9A331B" transform="translate(41,21)"/>
<path d="M0 0 C0.33 0 0.66 0 1 0 C1 3.96 1 7.92 1 12 C0.67 12 0.34 12 0 12 C0 8.04 0 4.08 0 0 Z " fill="#68360C" transform="translate(49,29)"/>
<path d="M0 0 C0.33 0 0.66 0 1 0 C1 3.3 1 6.6 1 10 C0.67 10 0.34 10 0 10 C0 6.7 0 3.4 0 0 Z " fill="#B6540C" transform="translate(11,32)"/>
<path d="M0 0 C2 3 2 3 1.625 5.1875 C1.315625 6.0846875 1.315625 6.0846875 1 7 C0.67 4.69 0.34 2.38 0 0 Z " fill="#ECA76D" transform="translate(12,49)"/>
<path d="M0 0 C0.33 0 0.66 0 1 0 C1 2.31 1 4.62 1 7 C0.67 7 0.34 7 0 7 C0 4.69 0 2.38 0 0 Z " fill="#F09425" transform="translate(50,41)"/>
<path d="M0 0 C0.33 0 0.66 0 1 0 C1 1.98 1 3.96 1 6 C0.67 6 0.34 6 0 6 C0 4.02 0 2.04 0 0 Z " fill="#4073D6" transform="translate(61,79)"/>
<path d="M0 0 C0.33 0.66 0.66 1.32 1 2 C0.34 2.66 -0.32 3.32 -1 4 C-0.67 2.68 -0.34 1.36 0 0 Z " fill="#FFD4A1" transform="translate(13,27)"/>
<path d="M0 0 C1 4 1 4 1 4 Z " fill="#2AD4E9" transform="translate(0,77)"/>
<path d="M0 0 C0 3 0 3 0 3 Z " fill="#004400" transform="translate(70,37)"/>
<path d="" fill="#314D94" transform="translate(0,0)"/>
<path d="" fill="#00BFFF" transform="translate(0,0)"/>
<path d="" fill="#D4FFFF" transform="translate(0,0)"/>
<path d="" fill="#AAFFFF" transform="translate(0,0)"/>
<path d="" fill="#DFFFFF" transform="translate(0,0)"/>
<path d="M0 0 C2 1 2 1 2 1 Z " fill="#55D4FF" transform="translate(46,64)"/>
<path d="" fill="#BF7F00" transform="translate(0,0)"/>
<path d="" fill="#942A2A" transform="translate(0,0)"/>
<path d="" fill="#00FFFF" transform="translate(0,0)"/>
<path d="" fill="#000000" transform="translate(0,0)"/>
<path d="" fill="#0000FF" transform="translate(0,0)"/>
<path d="" fill="#007F7F" transform="translate(0,0)"/>
<path d="" fill="#7FBFFF" transform="translate(0,0)"/>
<path d="" fill="#7FFFFF" transform="translate(0,0)"/>
<path d="" fill="#BFFFFF" transform="translate(0,0)"/>
<path d="" fill="#7FBFBF" transform="translate(0,0)"/>
<path d="" fill="#55FFFF" transform="translate(0,0)"/>
<path d="" fill="#BFBFFF" transform="translate(0,0)"/>
<path d="" fill="#AA5555" transform="translate(0,0)"/>
<path d="" fill="#FFFF00" transform="translate(0,0)"/>
<path d="" fill="#7F7F00" transform="translate(0,0)"/>
<path d="" fill="#AA5555" transform="translate(0,0)"/>
<path d="" fill="#FF0000" transform="translate(0,0)"/>
<path d="" fill="#00FF00" transform="translate(0,0)"/>
<path d="" fill="#000000" transform="translate(0,0)"/>
<path d="" fill="#3F7F3F" transform="translate(0,0)"/>
<path d="" fill="#007F00" transform="translate(0,0)"/>
<path d="" fill="#000000" transform="translate(0,0)"/>
<path d="" fill="#007F00" transform="translate(0,0)"/>
<path d="" fill="#000000" transform="translate(0,0)"/>
<path d="" fill="#FF7F7F" transform="translate(0,0)"/>
<path d="" fill="#FFFFFF" transform="translate(0,0)"/>
<path d="" fill="#FFFFFF" transform="translate(0,0)"/>
</svg>
